HIERARCHY
ROOT hip
{
	OFFSET 0.000000 0.000000 0.000000
	CHANNELS 6 Xposition Yposition Zposition Xrotation Zrotation Yrotation 
	JOINT abdomen
	{
		OFFSET 0.000000 3.422050 0.000000
		CHANNELS 3 Xrotation Zrotation Yrotation 
		JOINT chest
		{
			OFFSET 0.000000 8.486693 -0.684411
			CHANNELS 3 Xrotation Zrotation Yrotation 
			JOINT neck
			{
				OFFSET 0.000000 10.266162 -0.273764
				CHANNELS 3 Xrotation Zrotation Yrotation 
				JOINT head
				{
					OFFSET 0.000000 3.148285 0.000000
					CHANNELS 3 Xrotation Zrotation Yrotation 
					End Site
					{
						OFFSET 0.000000 3.148289 0.000000
					}
				}
			}
			JOINT lCollar
			{
				OFFSET 3.422053 6.707223 -0.821293
				CHANNELS 3 Yrotation Zrotation Xrotation 
				JOINT lShldr
				{
					OFFSET 3.285171 0.000000 0.000000
					CHANNELS 3 Zrotation Yrotation Xrotation 
					JOINT lForeArm
					{
						OFFSET 10.129278 0.000000 0.000000
						CHANNELS 3 Yrotation Zrotation Xrotation 
						JOINT lHand
						{
							OFFSET 8.486692 0.000000 0.000000
							CHANNELS 3 Zrotation Yrotation Xrotation 
							End Site
							{
								OFFSET 4.106464 0.000000 0.000000
							}
						}
					}
				}
			}
			JOINT rCollar
			{
				OFFSET -3.558935 6.707223 -0.821293
				CHANNELS 3 Yrotation Zrotation Xrotation 
				JOINT rShldr
				{
					OFFSET -3.148289 0.000000 0.000000
					CHANNELS 3 Zrotation Yrotation Xrotation 
					JOINT rForeArm
					{
						OFFSET -10.266159 0.000000 0.000000
						CHANNELS 3 Yrotation Zrotation Xrotation 
						JOINT rHand
						{
							OFFSET -8.349810 0.000000 0.000000
							CHANNELS 3 Zrotation Yrotation Xrotation 
							End Site
							{
								OFFSET -4.106464 0.000000 0.000000
							}
						}
					}
				}
			}
		}
	}
	JOINT lThigh
	{
		OFFSET 5.338403 -1.642589 1.368821
		CHANNELS 3 Xrotation Zrotation Yrotation 
		JOINT lShin
		{
			OFFSET -2.053232 -20.121670 0.000000
			CHANNELS 3 Xrotation Zrotation Yrotation 
			JOINT lFoot
			{
				OFFSET 0.000000 -19.300380 -1.231939
				CHANNELS 3 Xrotation Yrotation Zrotation 
				End Site
				{
					OFFSET 0.000000 -2.463878 4.653993
				}
			}
		}
	}
	JOINT rThigh
	{
		OFFSET -5.338403 -1.642589 1.368821
		CHANNELS 3 Xrotation Zrotation Yrotation 
		JOINT rShin
		{
			OFFSET 2.053232 -20.121670 0.000000
			CHANNELS 3 Xrotation Zrotation Yrotation 
			JOINT rFoot
			{
				OFFSET 0.000000 -19.300380 -1.231939
				CHANNELS 3 Xrotation Yrotation Zrotation 
				End Site
				{
					OFFSET 0.000000 -2.463878 4.653993
				}
			}
		}
	}
}
MOTION
Frames: 15
Frame Time: 0.049989
0.000000 43.528500 0.000000 0.000000 0.000000 0.000000 0.000000 0.000000 0.000000 0.000000 0.000000 0.000000 0.000000 0.000000 0.000000 0.000000 0.000000 0.000000 0.000000 0.000000 0.000000 0.000000 0.000000 0.000000 0.000000 0.000000 0.000000 0.000000 0.000000 0.000000 0.000000 0.000000 0.000000 0.000000 0.000000 0.000000 0.000000 0.000000 0.000000 0.000000 0.000000 0.000000 0.000000 0.000000 0.000000 0.000000 0.000000 0.000000 0.000000 0.000000 0.000000 0.000000 0.000000 0.000000 0.000000 0.000000 0.000000 0.000000 0.000000 0.000000 
0.000000 11.998247 -8.004953 3.999748 0.000000 0.000000 51.996784 0.000000 0.000000 19.998167 0.000000 0.000000 -27.000286 0.000000 0.000000 -12.001280 0.000000 0.000000 0.000000 0.000000 -10.002190 83.032745 -66.004288 -60.035179 -11.003080 0.000000 0.000000 0.000000 0.000000 0.000000 0.000000 0.000000 -10.002190 -82.996056 65.996170 -59.995548 10.999558 0.000000 0.000000 0.000000 0.000000 0.000000 -61.999828 19.999102 -29.999998 139.991013 0.000000 0.000000 66.999611 0.000001 -0.000001 -62.001255 -20.003736 29.999212 139.991013 0.000000 0.000000 66.999611 0.000001 -0.000001 
0.000000 11.998247 -8.004953 3.999748 0.000000 0.000000 52.316647 0.000000 0.000000 19.998163 0.000000 0.000000 -27.360062 0.000000 0.000000 -12.315805 -0.058776 0.873237 0.000000 0.000000 -10.002190 83.030937 -65.524902 -60.033443 -11.003079 0.000000 0.000000 0.000000 0.000000 0.000000 0.000000 0.000000 -10.002191 -82.996269 65.516998 -59.995831 10.999558 0.000000 0.000000 0.000000 0.000000 0.000000 -61.999832 19.999104 -30.000002 139.991013 0.000000 0.000000 66.999611 0.000001 -0.000001 -62.001263 -20.003738 29.999212 139.991013 0.000000 0.000000 66.999611 0.000001 -0.000001 
0.000000 11.998247 -8.004953 3.999747 0.000000 0.000000 52.636555 0.000000 0.000000 19.998167 0.000000 0.000000 -27.719921 0.000000 0.000000 -12.631674 -0.112830 1.748124 0.000000 0.000000 -10.002190 83.029205 -65.045349 -60.031784 -11.003080 0.000000 0.000000 0.000000 0.000000 0.000000 0.000000 0.000000 -10.002190 -82.996468 65.037613 -59.996109 10.999560 0.000000 0.000000 0.000000 0.000000 0.000000 -61.999828 19.999102 -29.999998 139.991013 0.000000 0.000000 66.999611 0.000001 -0.000001 -62.001255 -20.003736 29.999212 139.991013 0.000000 0.000000 66.999611 0.000001 -0.000001 
0.000000 11.998247 -8.004953 3.999748 0.000000 0.000000 52.956524 0.000000 0.000000 19.998165 0.000000 0.000000 -28.079855 0.000000 0.000000 -12.948775 -0.162120 2.624522 0.000000 0.000000 -10.002190 83.027534 -64.565598 -60.030170 -11.003079 0.000000 0.000000 0.000000 0.000000 0.000000 0.000000 0.000000 -10.002190 -82.996658 64.558060 -59.996361 10.999558 0.000000 0.000000 0.000000 0.000000 0.000000 -61.999828 19.999102 -29.999998 139.991013 0.000000 0.000000 66.999611 0.000001 -0.000001 -62.001255 -20.003738 29.999212 139.991013 0.000000 0.000000 66.999611 0.000001 -0.000001 
0.000000 11.998247 -8.004953 3.999748 0.000000 0.000000 53.276543 0.000000 0.000000 19.998167 0.000000 0.000000 -28.439852 0.000000 0.000000 -13.266998 -0.206606 3.502294 0.000000 0.000000 -10.002190 83.025932 -64.085709 -60.028641 -11.003080 0.000000 0.000000 0.000000 0.000000 0.000000 0.000000 0.000000 -10.002190 -82.996841 64.078339 -59.996620 10.999558 0.000000 0.000000 0.000000 0.000000 0.000000 -61.999828 19.999102 -29.999998 139.991013 0.000000 0.000000 66.999611 0.000001 -0.000001 -62.001255 -20.003736 29.999212 139.991013 0.000000 0.000000 66.999611 0.000001 -0.000001 
0.000000 11.998247 -8.004953 3.999748 0.000000 0.000000 53.596600 0.000000 0.000000 19.998165 0.000000 0.000000 -28.799917 0.000000 0.000000 -13.586228 -0.246253 4.381300 0.000000 0.000000 -10.002190 83.024353 -63.605640 -60.027138 -11.003079 0.000000 0.000000 0.000000 0.000000 0.000000 0.000000 0.000000 -10.002190 -82.996986 63.598461 -59.996841 10.999559 0.000000 0.000000 0.000000 0.000000 0.000000 -61.999828 19.999102 -30.000002 139.991028 0.000000 0.000000 66.999611 0.000001 -0.000001 -62.001255 -20.003738 29.999212 139.991028 0.000000 0.000000 66.999611 0.000001 -0.000001 
0.000000 11.998247 -8.004953 3.999747 0.000000 0.000000 53.916691 0.000000 0.000000 19.998167 0.000000 0.000000 -29.160034 0.000000 0.000000 -13.906352 -0.281030 5.261399 0.000000 0.000000 -10.002190 83.022865 -63.125462 -60.025719 -11.003080 0.000000 0.000000 0.000000 0.000000 0.000000 0.000000 0.000000 -10.002190 -82.997139 63.118454 -59.997066 10.999558 0.000000 0.000000 0.000000 0.000000 0.000000 -61.999828 19.999102 -29.999998 139.991013 0.000000 0.000000 66.999611 0.000001 -0.000001 -62.001255 -20.003736 29.999212 139.991013 0.000000 0.000000 66.999611 0.000001 -0.000001 
0.000000 11.998247 -8.004953 3.999748 0.000000 0.000000 54.236828 0.000000 0.000000 19.998163 0.000000 0.000000 -29.520191 0.000000 0.000000 -14.227250 -0.310910 6.142447 0.000000 0.000000 -10.002189 83.021423 -62.645199 -60.024345 -11.003079 0.000000 0.000000 0.000000 0.000000 0.000000 0.000000 0.000000 -10.002191 -82.997292 62.638355 -59.997292 10.999557 0.000000 0.000000 0.000000 0.000000 0.000000 -61.999832 19.999102 -29.999998 139.991013 0.000000 0.000000 66.999611 0.000001 -0.000001 -62.001263 -20.003738 29.999212 139.991013 0.000000 0.000000 66.999611 0.000001 -0.000001 
0.000000 11.998247 -8.004953 3.999747 0.000000 0.000000 54.556973 0.000000 0.000000 19.998167 0.000000 0.000000 -29.880390 0.000000 0.000000 -14.548808 -0.335868 7.024299 0.000000 0.000000 -10.002190 83.019997 -62.164810 -60.022991 -11.003080 0.000000 0.000000 0.000000 0.000000 0.000000 0.000000 0.000000 -10.002189 -82.997444 62.158173 -59.997524 10.999558 0.000000 0.000000 0.000000 0.000000 0.000000 -61.999821 19.999100 -29.999998 139.991013 0.000000 0.000000 66.999603 0.000001 -0.000001 -62.001247 -20.003736 29.999212 139.991013 0.000000 0.000000 66.999603 0.000001 -0.000001 
0.000000 11.998247 -8.004953 3.999748 0.000000 0.000000 54.877159 0.000000 0.000000 19.998165 0.000000 0.000000 -30.240625 0.000000 0.000000 -14.870909 -0.355884 7.906812 0.000000 0.000000 -10.002190 83.018654 -61.684376 -60.021721 -11.003079 0.000000 0.000000 0.000000 0.000000 0.000000 0.000000 0.000000 -10.002190 -82.997566 61.677879 -59.997715 10.999559 0.000000 0.000000 0.000000 0.000000 0.000000 -61.999828 19.999102 -29.999998 139.991013 0.000000 0.000000 66.999611 0.000001 -0.000001 -62.001255 -20.003736 29.999212 139.991013 0.000000 0.000000 66.999611 0.000001 -0.000001 
0.000000 11.998247 -8.004953 3.999748 0.000000 0.000000 55.197357 0.000000 0.000000 19.998167 0.000000 0.000000 -30.600880 0.000000 0.000000 -15.193433 -0.370942 8.789842 0.000000 0.000000 -10.002190 83.017326 -61.203857 -60.020466 -11.003080 0.000000 0.000000 0.000000 0.000000 0.000000 0.000000 0.000000 -10.002190 -82.997734 61.197582 -59.997952 10.999558 0.000000 0.000000 0.000000 0.000000 0.000000 -61.999832 19.999104 -30.000002 139.991013 0.000000 0.000000 66.999611 0.000001 -0.000001 -62.001263 -20.003738 29.999216 139.991013 0.000000 0.000000 66.999611 0.000001 -0.000001 
0.000000 11.998247 -8.004953 3.999748 0.000000 0.000000 55.517563 0.000000 0.000000 19.998163 0.000000 0.000000 -30.961159 0.000000 0.000000 -15.516259 -0.381030 9.673240 0.000000 0.000000 -10.002190 83.016075 -60.723320 -60.019283 -11.003080 0.000000 0.000000 0.000000 0.000000 0.000000 0.000000 0.000000 -10.002190 -82.997871 60.717201 -59.998158 10.999558 0.000000 0.000000 0.000000 0.000000 0.000000 -61.999828 19.999100 -29.999998 139.991013 0.000000 0.000000 66.999611 0.000001 -0.000001 -62.001255 -20.003736 29.999212 139.991013 0.000000 0.000000 66.999611 0.000001 -0.000001 
0.000000 11.998247 -8.004953 3.999748 0.000000 0.000000 55.837769 0.000000 0.000000 19.998167 0.000000 0.000000 -31.321438 0.000000 0.000000 -15.839265 -0.386141 10.556858 0.000000 0.000000 -10.002190 83.014832 -60.242733 -60.018116 -11.003080 0.000000 0.000000 0.000000 0.000000 0.000000 0.000000 0.000000 -10.002191 -82.997978 60.236797 -59.998348 10.999558 0.000000 0.000000 0.000000 0.000000 0.000000 -61.999828 19.999102 -30.000002 139.991028 0.000000 0.000000 66.999611 0.000001 -0.000001 -62.001255 -20.003738 29.999216 139.991028 0.000000 0.000000 66.999611 0.000001 -0.000001 
0.000000 11.998247 -8.004953 3.999747 0.000000 0.000000 56.157993 0.000000 0.000000 19.998165 0.000000 0.000000 -31.681721 0.000000 0.000000 -16.162334 -0.386270 11.440550 0.000000 0.000000 -10.002190 83.013649 -59.762161 -60.017002 -11.003080 0.000000 0.000000 0.000000 0.000000 0.000000 0.000000 0.000000 -10.002189 -82.998100 59.756397 -59.998547 10.999558 0.000000 0.000000 0.000000 0.000000 0.000000 -61.999828 19.999102 -29.999998 139.991013 0.000000 0.000000 66.999611 0.000001 -0.000001 -62.001255 -20.003736 29.999212 139.991013 0.000000 0.000000 66.999611 0.000001 -0.000001 
